#!OML:ASF I:\Actors\actors\Patient Classification 1\Patient 1\Session 1\Subject1.ASF
:FULLY-SPECIFIED
:DEGREES
1687
root 0.205835 17.4273 8.44405 5.78832 -3.29601 -8.60319
lowerback -3.6788 2.18227 5.83451
upperback -10.1586 3.11868 1.57627
thorax -8.45234 1.16036 -1.68924
lowerneck -9.61416 -3.84294 -2.88825
upperneck 25.6688 -6.44907 5.82772
head 10.013 -2.64314 1.79154
rclavicle 4.57205e-015 1.51076e-014
rhumerus -61.9777 10.5074 -94.3342
rradius 62.9826
rwrist 42.8022
rhand -34.8129 -35.3736
rfingers 7.12502
rthumb -7.96424 -425.204
lclavicle 4.57205e-015 1.51076e-014
lhumerus -61.2787 -7.57393 95.0124
lradius 59.8966
lwrist -27.1503
lhand -50.5716 -78.3963
lfingers 7.12502
lthumb -23.1376 -49.7658
rfemur -1.55495 19.7592 26.0116
rtibia 6.6171
rfoot -14.7637 -23.4104
rtoes 3.32459
lfemur 8.20467 -33.1932 -14.6496
ltibia -3.04262
lfoot -16.5538 44.2271
ltoes 6.16216
1688
root 0.194756 17.4266 8.42722 5.59455 -3.23172 -8.56753
lowerback -3.73104 2.19727 5.85615
upperback -10.15 3.13386 1.56601
thorax -8.40983 1.16722 -1.71019
lowerneck -9.48839 -3.8658 -3.14804
upperneck 25.4888 -6.50646 6.15871
head 9.94761 -2.66419 1.94644
rclavicle -1.51076e-014 2.74323e-014
rhumerus -61.7416 10.3389 -94.2273
rradius 61.0968
rwrist 42.0835
rhand -34.9615 -35.262
rfingers 7.12502
rthumb -8.10765 -425.086
lclavicle -1.51076e-014 2.74323e-014
lhumerus -60.8552 -7.49314 94.9387
lradius 58.1429
lwrist -26.7083
lhand -50.6496 -78.2903
lfingers 7.12502
lthumb -23.2125 -49.6691
rfemur -1.44616 19.6741 26.0696
rtibia 6.72723
rfoot -14.7612 -23.4103
rtoes 3.37723
lfemur 8.29607 -33.0381 -14.6618
ltibia -3.01312
lfoot -16.3868 44.0583
ltoes 5.80233
1689
root 0.184047 17.4247 8.411 5.38157 -3.13863 -8.58013
lowerback -3.76411 2.18135 5.90782
upperback -10.1232 3.11085 1.59074
thorax -8.36206 1.15489 -1.71026
lowerneck -9.37936 -3.86492 -3.16322
upperneck 25.311 -6.49134 6.16002
head 9.86217 -2.66413 1.95197
rclavicle -2.41523e-014 -1.43125e-014
rhumerus -61.4726 10.2771 -94.2388
rradius 59.3005
rwrist 40.7754
rhand -35.2261 -35.0629
rfingers 7.12502
rthumb -8.36299 -424.877
lclavicle -2.41523e-014 -1.43125e-014
lhumerus -60.4143 -7.31511 94.8303
lradius 56.3872
lwrist -26.1532
lhand -50.4986 -77.9733
lfingers 7.12502
lthumb -23.0676 -49.334
rfemur -1.2824 19.5821 26.1905
rtibia 6.76902
rfoot -14.7402 -23.4427
rtoes 3.31605
lfemur 8.4593 -32.9885 -14.6671
ltibia -3.03064
lfoot -16.2044 43.9462
ltoes 5.47584
1690
root 0.174314 17.4207 8.39471 5.19761 -3.02828 -8.58461
lowerback -3.78497 2.15003 5.9313
upperback -10.1156 3.06994 1.63157
thorax -8.34591 1.13545 -1.6781
lowerneck -9.24533 -3.86646 -3.11641
upperneck 25.1029 -6.46045 6.04712
head 9.75421 -2.66443 1.90911
rclavicle -3.8763e-015 2.10712e-014
rhumerus -61.1893 10.2225 -94.2521
rradius 57.5243
rwrist 39.4646
rhand -35.4236 -34.7456
rfingers 7.12502
rthumb -8.55362 -424.552
lclavicle -3.8763e-015 2.10712e-014
lhumerus -59.9766 -7.0504 94.7002
lradius 54.5798
lwrist -25.7422
lhand -50.1971 -77.5705
lfingers 7.12502
lthumb -22.7783 -48.8953
rfemur -1.14163 19.5597 26.2945
rtibia 6.80068
rfoot -14.765 -23.5348
rtoes 3.33403
lfemur 8.63856 -33.183 -14.7416
ltibia -3.04381
lfoot -16.2812 44.0011
ltoes 5.57333
1691
root 0.1655 17.4169 8.3788 5.03467 -2.89375 -8.55682
lowerback -3.77936 2.12157 5.92247
upperback -10.1455 3.0352 1.64717
thorax -8.38637 1.11821 -1.65648
lowerneck -9.09806 -3.87056 -3.14355
upperneck 24.9602 -6.45868 6.06798
head 9.67645 -2.6697 1.92303
rclavicle 2.18663e-015 -5.04913e-014
rhumerus -60.9253 9.97723 -94.17
rradius 55.7655
rwrist 38.5098
rhand -35.4281 -34.3641
rfingers 7.12502
rthumb -8.55791 -424.171
lclavicle 2.18663e-015 -5.04913e-014
lhumerus -59.5453 -6.77733 94.5546
lradius 52.6982
lwrist -25.5546
lhand -49.9376 -77.0159
lfingers 7.12502
lthumb -22.5292 -48.3103
rfemur -1.01419 19.5497 26.3572
rtibia 6.82401
rfoot -14.7803 -23.6728
rtoes 3.38125
lfemur 8.76922 -33.3647 -14.8329
ltibia -3.02777
lfoot -16.4263 44.0371
ltoes 5.74986
1692
root 0.158241 17.4148 8.36441 4.83768 -2.77782 -8.52367
lowerback -3.71584 2.09938 5.92508
upperback -10.1558 3.01204 1.65114
thorax -8.43676 1.10517 -1.65573
lowerneck -9.10162 -3.88749 -3.21053
upperneck 24.9595 -6.49097 6.1486
head 9.68386 -2.68221 1.95871
rclavicle 2.68359e-014 -2.0276e-014
rhumerus -60.5737 9.57632 -93.9861
rradius 53.9836
rwrist 37.8435
rhand -35.3786 -33.9256
rfingers 7.12502
rthumb -8.51017 -423.734
lclavicle 2.68359e-014 -2.0276e-014
lhumerus -59.0084 -6.47698 94.3345
lradius 50.6929
lwrist -25.7369
lhand -49.8895 -76.271
lfingers 7.12502
lthumb -22.483 -47.5598
rfemur -0.833251 19.5146 26.4185
rtibia 6.81859
rfoot -14.7608 -23.7685
rtoes 3.40043
lfemur 8.91256 -33.3201 -14.8938
ltibia -3.05207
lfoot -16.2352 43.9365
ltoes 5.3698
1693
root 0.152696 17.4152 8.34965 4.67476 -2.66637 -8.52946
lowerback -3.65431 2.05278 5.96643
upperback -10.1583 2.95779 1.68201
thorax -8.47982 1.07524 -1.6468
lowerneck -9.18143 -3.89978 -3.28405
upperneck 24.9754 -6.52053 6.24733
head 9.71264 -2.69022 2.00082
rclavicle -2.78299e-015 3.49861e-014
rhumerus -60.1601 9.17656 -93.7683
rradius 52.2202
rwrist 37.4847
rhand -35.2455 -33.5644
rfingers 7.12502
rthumb -8.38168 -423.378
lclavicle -2.78299e-015 3.49861e-014
lhumerus -58.3682 -6.04846 94.0246
lradius 48.6742
lwrist -26.1747
lhand -50.0624 -75.3064
lfingers 7.12502
lthumb -22.649 -46.6154
rfemur -0.709977 19.4791 26.5023
rtibia 6.84431
rfoot -14.7412 -23.8353
rtoes 3.46609
lfemur 9.00934 -33.2512 -14.8759
ltibia -3.09808
lfoot -15.9141 43.8163
ltoes 4.84023
1694
root 0.148679 17.4164 8.33457 4.56886 -2.5268 -8.55957
lowerback -3.63606 1.99864 6.02524
upperback -10.1688 2.89225 1.73712
thorax -8.50838 1.0399 -1.61991
lowerneck -9.23607 -3.87528 -3.27998
upperneck 24.9704 -6.47968 6.2256
head 9.71804 -2.67194 1.99626
rclavicle -1.90833e-014 4.37326e-014
rhumerus -59.7167 8.74813 -93.4658
rradius 50.5225
rwrist 37.4518
rhand -34.8806 -33.4931
rfingers 7.12502
rthumb -8.02955 -423.321
lclavicle -1.90833e-014 4.37326e-014
lhumerus -57.6579 -5.51755 93.7287
lradius 46.6293
lwrist -26.4517
lhand -50.2684 -73.9809
lfingers 7.12502
lthumb -22.8467 -45.3141
rfemur -0.646739 19.451 26.5913
rtibia 6.88067
rfoot -14.7737 -23.9185
rtoes 3.76426
lfemur 9.04873 -33.2928 -14.8264
ltibia -3.12017
lfoot -15.7732 43.7237
ltoes 4.69764
1695
root 0.146303 17.4166 8.32061 4.47781 -2.39538 -8.5047
lowerback -3.62511 1.96943 6.01842
upperback -10.1712 2.85593 1.75806
thorax -8.52146 1.02322 -1.59337
lowerneck -9.27365 -3.85438 -3.24039
upperneck 24.9563 -6.43091 6.13062
head 9.71269 -2.65494 1.96129
rclavicle 7.25564e-015 8.74653e-015
rhumerus -59.2161 8.23877 -93.0871
rradius 48.8381
rwrist 37.4836
rhand -34.3948 -33.4372
rfingers 7.12502
rthumb -7.56064 -423.282
lclavicle 7.25564e-015 8.74653e-015
lhumerus -56.8463 -5.0092 93.4811
lradius 44.307
lwrist -25.7489
lhand -49.8464 -72.7369
lfingers 7.12502
lthumb -22.4417 -44.0207
rfemur -0.580943 19.39 26.5645
rtibia 6.87113
rfoot -14.7624 -23.994
rtoes 3.85412
lfemur 9.08161 -33.3848 -14.907
ltibia -3.12215
lfoot -15.7545 43.6767
ltoes 4.76792
1696
root 0.144875 17.4166 8.30696 4.38777 -2.28438 -8.39309
lowerback -3.59657 1.95471 5.94288
upperback -10.17 2.83861 1.7688
thorax -8.54066 1.02078 -1.54082
lowerneck -9.21787 -3.85715 -3.3042
upperneck 24.7926 -6.42787 6.19439
head 9.64782 -2.65653 1.99462
rclavicle 6.16232e-015 -3.97569e-016
rhumerus -58.7026 7.7199 -92.6619
rradius 47.2186
rwrist 37.7015
rhand -33.0913 -33.2092
rfingers 7.12502
rthumb -6.30234 -423.095
lclavicle 6.16232e-015 -3.97569e-016
lhumerus -56.0105 -4.51715 93.3048
lradius 41.7001
lwrist -23.7411
lhand -48.7292 -72.1728
lfingers 7.12502
lthumb -21.369 -43.3311
rfemur -0.523452 19.2636 26.4545
rtibia 6.84797
rfoot -14.6713 -24.0223
rtoes 3.59943
lfemur 9.12391 -33.52 -15.0859
ltibia -3.11638
lfoot -15.7832 43.7024
ltoes 4.88384
